G04 Created by reaConverter (www.reaconverter.com)*
%FSLAX24Y24*%
%MOIN*%
G75*
%ADD10C,0.0010*%
%ADD11C,0.0004*%
%LNEXPORT*%
D02*
%LPC*%
D10*
%LPD*%
D11*
X43302Y45188D02*
X43565D01*
X44150Y42937D02*
X43774Y40262D01*
X44150Y39177D02*
X44429D01*
X44150Y42937D02*
Y44597D01*
X43300Y45095D02*
X43561D01*
X44429Y42937D02*
Y44597D01*
X43965Y44440D02*
Y44176D01*
X44572Y44440D02*
Y44162D01*
X43774Y40262D02*
Y39177D01*
X44790D01*
Y40262D01*
X44429Y42937D01*
X61680Y36726D02*
Y50236D01*
X43965Y44459D02*
Y44440D01*
X43647Y44358D02*
Y43075D01*
X39151Y40219D01*
Y39177D01*
X40209D01*
Y40162D01*
X43965Y42973D01*
Y44176D01*
X44572Y44162D02*
Y42973D01*
X48369Y40162D01*
Y39177D01*
X49429D01*
Y40162D01*
X44931Y43015D01*
Y44358D01*
X56198Y39136D02*
X56708D01*
X55329Y45188D02*
X55593D01*
X56059Y39136D02*
X56338D01*
X56059Y42937D02*
Y44250D01*
X56198Y39136D02*
X55690D01*
X56338Y42937D02*
Y44250D01*
X55690Y39136D02*
Y40162D01*
X56708Y39136D02*
Y40162D01*
X55326Y45095D02*
X55587D01*
X51415Y47355D02*
X52193D01*
X60270Y39136D02*
Y40162D01*
Y39136D02*
X61327Y39120D01*
Y40162D01*
X56708D02*
X56338Y42937D01*
X55690Y40162D02*
X56059Y42937D01*
X52127Y39136D02*
Y40162D01*
X56477Y42937D02*
X60270Y40162D01*
X52127Y39136D02*
X51068D01*
X61327Y40162D02*
X56836Y42937D01*
Y44515D01*
X56477Y42937D02*
Y44284D01*
X51068Y39136D02*
Y40118D01*
X56059Y44250D02*
Y44597D01*
X55876Y42937D02*
X52127Y40162D01*
X55876Y42937D02*
Y44301D01*
X51068Y40118D02*
X55558Y42937D01*
Y44519D01*
X56338Y44250D02*
Y44597D01*
X55876Y44301D02*
Y44593D01*
X56477Y44284D02*
Y44568D01*
X67179Y45188D02*
X67541D01*
X67968Y39120D02*
X68248D01*
X67968Y42973D02*
Y44597D01*
X68394Y44225D02*
Y44615D01*
X68248Y42973D02*
Y44597D01*
X67784Y42973D02*
Y44640D01*
X72187Y39120D02*
X73244D01*
X67176Y45095D02*
X67536D01*
X67466Y42973D02*
Y44436D01*
X39505Y46665D02*
X40283D01*
X68754Y42973D02*
Y44440D01*
X68394Y42973D02*
Y44225D01*
X68108Y39120D02*
X68615D01*
X68108D02*
X67601D01*
Y40162D01*
X68615Y39120D02*
Y40162D01*
X68248Y42973D01*
X67601Y40162D02*
X67968Y42973D01*
X64033Y39120D02*
X62972D01*
Y40162D01*
X64033Y39120D02*
Y40162D01*
X67784Y42973D01*
X62972Y40162D02*
X67466Y42973D01*
X73244Y39120D02*
Y40162D01*
X39505Y46665D02*
Y47355D01*
X72187Y40162D02*
Y39120D01*
Y40162D02*
X68394Y42973D01*
X68754D02*
X73244Y40162D01*
X39505Y47355D02*
X40283D01*
Y46665D02*
Y47355D01*
X39505Y46665D02*
X40283Y47355D01*
X39505D02*
X40283Y46665D01*
X39505Y42863D02*
X40283D01*
X39505D02*
Y43584D01*
X40283D01*
Y42863D02*
Y43584D01*
X39505Y42863D02*
X40283Y43584D01*
X39505D02*
X40283Y42863D01*
X48265Y46665D02*
X49029D01*
X48265D02*
Y47355D01*
X49029D01*
Y46665D02*
Y47355D01*
X48265Y46665D02*
X49029Y47355D01*
X48265D02*
X49029Y46665D01*
X48265Y43584D02*
X49029D01*
X48265D02*
Y42863D01*
X49029D01*
Y43584D02*
Y42863D01*
X48265Y43584D02*
X49029Y42863D01*
X48265D02*
X49029Y43584D01*
X52193Y46665D02*
Y47355D01*
X51415Y46665D02*
X52193D01*
X51415D02*
Y47355D01*
Y43584D02*
X52193D01*
X51415Y42863D02*
Y43584D01*
X52193Y42863D02*
Y43584D01*
X51415Y42863D02*
X52193D01*
X60175Y47355D02*
X60937D01*
X60175Y46665D02*
Y47355D01*
X60937Y46665D02*
Y47355D01*
X60175Y46665D02*
X60937D01*
X60175Y43584D02*
X60937D01*
X60175D02*
Y42863D01*
X60937Y43584D02*
Y42863D01*
X60175D02*
X60937D01*
X63325Y47355D02*
X64101D01*
Y46665D02*
Y47355D01*
X63325Y46665D02*
X64101D01*
X63325D02*
Y47355D01*
Y43584D02*
X64101D01*
X63325Y42863D02*
Y43584D01*
X64101Y42863D02*
Y43584D01*
X63325Y42863D02*
X64101D01*
X72084Y47355D02*
X72847D01*
X72084Y46665D02*
Y47355D01*
X72847Y46665D02*
Y47355D01*
X72084Y46665D02*
X72847D01*
X72084Y43584D02*
X72847D01*
X72084D02*
Y42863D01*
X72847Y43584D02*
Y42863D01*
X72084D02*
X72847D01*
X62658Y36726D02*
X74018D01*
X38597D02*
X49772D01*
X38597D02*
Y50236D01*
X49772D01*
X74018Y36726D02*
Y50236D01*
X49772Y36726D02*
Y50236D01*
X50748Y36726D02*
X61680D01*
X37619Y51018D02*
X74994D01*
X37619D02*
Y35945D01*
X74994D01*
Y51018D02*
Y35945D01*
X50748Y36726D02*
Y50236D01*
X62658Y36726D02*
Y50236D01*
X50748D02*
X61680D01*
X62658D02*
X74018D01*
X44429Y44597D02*
X44552Y44648D01*
X44659Y44727D01*
X44743Y44830D01*
X44798Y44951D01*
X44822Y45083D01*
X44812Y45215D01*
X44770Y45341D01*
X44699Y45454D01*
X44601Y45544D01*
X44484Y45608D01*
X44356Y45641D01*
X44223D01*
X44094Y45608D01*
X43977Y45544D01*
X43880Y45454D01*
X43808Y45341D01*
X43766Y45215D01*
X43756Y45083D01*
X43781Y44951D01*
X43836Y44830D01*
X43920Y44727D01*
X44026Y44648D01*
X44150Y44597D01*
X56338Y44597D02*
X56462Y44648D01*
X56569Y44727D01*
X56652Y44831D01*
X56708Y44952D01*
X56731Y45083D01*
X56722Y45215D01*
X56680Y45341D01*
X56608Y45454D01*
X56511Y45544D01*
X56394Y45608D01*
X56265Y45641D01*
X56133D01*
X56004Y45608D01*
X55887Y45544D01*
X55790Y45454D01*
X55718Y45341D01*
X55676Y45215D01*
X55666Y45083D01*
X55690Y44952D01*
X55745Y44831D01*
X55829Y44727D01*
X55936Y44648D01*
X56059Y44597D01*
X68248Y44597D02*
X68372Y44648D01*
X68479Y44727D01*
X68562Y44831D01*
X68616Y44952D01*
X68641Y45083D01*
X68631Y45216D01*
X68590Y45341D01*
X68518Y45454D01*
X68420Y45544D01*
X68304Y45608D01*
X68174Y45641D01*
X68041D01*
X67913Y45608D01*
X67797Y45544D01*
X67698Y45454D01*
X67627Y45341D01*
X67586Y45216D01*
X67576Y45083D01*
X67600Y44952D01*
X67655Y44831D01*
X67738Y44727D01*
X67844Y44648D01*
X67968Y44597D01*
X44572Y44440D02*
X44706Y44513D01*
X44822Y44615D01*
X44913Y44737D01*
X44979Y44876D01*
X45013Y45024D01*
X45015Y45177D01*
X44986Y45327D01*
X44924Y45469D01*
X44837Y45593D01*
X44723Y45697D01*
X44591Y45774D01*
X44447Y45823D01*
X44294Y45840D01*
X44143Y45826D01*
X43997Y45779D01*
X43863Y45702D01*
X43750Y45601D01*
X43659Y45477D01*
X43597Y45337D01*
X43565Y45188D01*
X55587Y45095D02*
X55602Y44976D01*
X55641Y44861D01*
X55701Y44756D01*
X55780Y44666D01*
X55876Y44593D01*
X67536Y45095D02*
X67555Y44962D01*
X67605Y44837D01*
X67683Y44729D01*
X67784Y44640D01*
X55326Y45095D02*
X55343Y44937D01*
X55388Y44786D01*
X55461Y44645D01*
X55558Y44519D01*
X43300Y45095D02*
X43316Y44929D01*
X43361Y44766D01*
X43433Y44615D01*
X43529Y44477D01*
X43647Y44358D01*
X43561Y45095D02*
X43581Y44938D01*
X43636Y44790D01*
X43720Y44656D01*
X43831Y44545D01*
X43965Y44459D01*
X44931Y44358D02*
X45061Y44490D01*
X45163Y44644D01*
X45234Y44815D01*
X45273Y44997D01*
X45277Y45181D01*
X45247Y45363D01*
X45184Y45538D01*
X45088Y45697D01*
X44966Y45836D01*
X44819Y45948D01*
X44655Y46033D01*
X44477Y46084D01*
X44293Y46102D01*
X44108Y46086D01*
X43930Y46034D01*
X43765Y45952D01*
X43618Y45840D01*
X43494Y45702D01*
X43398Y45544D01*
X43333Y45370D01*
X43302Y45188D01*
X56836Y44515D02*
X56937Y44647D01*
X57012Y44794D01*
X57058Y44954D01*
X57072Y45119D01*
X57055Y45284D01*
X57006Y45444D01*
X56929Y45590D01*
X56826Y45720D01*
X56699Y45827D01*
X56555Y45909D01*
X56397Y45962D01*
X56233Y45984D01*
X56068Y45974D01*
X55906Y45934D01*
X55756Y45865D01*
X55622Y45766D01*
X55508Y45645D01*
X55419Y45505D01*
X55359Y45351D01*
X55329Y45188D01*
X56477Y44568D02*
X56594Y44645D01*
X56690Y44747D01*
X56759Y44868D01*
X56799Y45001D01*
X56809Y45140D01*
X56787Y45277D01*
X56734Y45406D01*
X56654Y45520D01*
X56550Y45612D01*
X56427Y45679D01*
X56293Y45716D01*
X56154Y45722D01*
X56016Y45695D01*
X55888Y45638D01*
X55777Y45555D01*
X55688Y45448D01*
X55625Y45323D01*
X55593Y45188D01*
X67176Y45095D02*
X67191Y44948D01*
X67229Y44805D01*
X67287Y44670D01*
X67368Y44545D01*
X67466Y44436D01*
X68394Y44615D02*
X68502Y44697D01*
X68590Y44802D01*
X68649Y44924D01*
X68677Y45058D01*
X68674Y45194D01*
X68638Y45326D01*
X68573Y45445D01*
X68481Y45545D01*
X68368Y45622D01*
X68240Y45669D01*
X68105Y45684D01*
X67970Y45668D01*
X67843Y45619D01*
X67730Y45541D01*
X67640Y45440D01*
X67575Y45320D01*
X67541Y45188D01*
X68754Y44440D02*
X68866Y44570D01*
X68952Y44718D01*
X69011Y44879D01*
X69037Y45048D01*
X69034Y45219D01*
X68998Y45387D01*
X68933Y45545D01*
X68840Y45688D01*
X68722Y45812D01*
X68583Y45913D01*
X68429Y45987D01*
X68263Y46030D01*
X68093Y46044D01*
X67922Y46025D01*
X67758Y45976D01*
X67606Y45897D01*
X67470Y45791D01*
X67358Y45663D01*
X67269Y45516D01*
X67209Y45356D01*
X67179Y45188D01*
X43647Y44358D02*
X68108Y42116D02*
X44280Y41887D02*
X44931Y44358D02*
X43965Y44459D02*
Y44176D02*
X44572Y44440D02*
Y44162D02*
X43302Y45188D02*
X43565D02*
X43300Y45095D02*
X43561D02*
X56190Y42123D02*
X39894Y47009D02*
Y43225D02*
X48647Y47009D02*
Y43225D02*
X56190Y43593D02*
X144Y3012D02*
X313Y2769D01*
X654D01*
X825Y3012D01*
X144Y3984D01*
X313Y4229D01*
X654D01*
X825Y3984D01*
X1165Y2769D02*
Y4229D01*
X1847D01*
Y2769D01*
X1165D01*
X2187Y4229D02*
Y2769D01*
X2868D01*
X3208Y4229D02*
X3548D01*
X3379D02*
Y2769D01*
X3208D02*
X3548D01*
X3890Y2769D02*
X4400D01*
X4570Y3012D01*
Y3984D01*
X4400Y4229D01*
X3890D01*
X4059Y4229D02*
Y2769D01*
X4911Y4229D02*
X5251Y2769D01*
X5422Y3498D01*
X5591Y2769D01*
X5933Y4229D01*
X6273Y2769D02*
Y4229D01*
X6954D01*
Y2769D01*
X6273D01*
X7294Y2769D02*
Y4229D01*
X7805D01*
X7976Y3984D01*
Y3741D01*
X7805Y3498D01*
X7294D01*
X7465Y3498D02*
X7976Y2769D01*
X8316D02*
Y4229D01*
X8997Y4229D02*
X8486Y3498D01*
X8316D01*
X8486Y3498D02*
X8997Y2769D01*
X9337Y3012D02*
X9508Y2769D01*
X9848D01*
X10019Y3012D01*
X9337Y3984D01*
X9508Y4229D01*
X9848D01*
X10019Y3984D01*
X11380Y2769D02*
Y4229D01*
X12062D01*
X11380Y3498D02*
X11722D01*
X11380Y2769D02*
X12062D01*
X13083Y3255D02*
X12743Y2769D01*
X12573D01*
X12402Y3012D01*
Y3498D01*
X12573Y3741D01*
X12743D01*
X13083Y3255D01*
X13083Y4229D02*
Y2769D01*
X13425Y3741D02*
Y3012D01*
X13594Y2769D01*
X13765D01*
X14105Y3255D01*
X14105Y3741D02*
Y2769D01*
X15126Y3741D02*
X14616D01*
X14445Y3498D01*
Y3012D01*
X14616Y2769D01*
X15126D01*
X15808Y2769D02*
X15637D01*
X15468Y3012D01*
Y3498D01*
X15637Y3741D01*
X15808D01*
X15977Y3498D01*
Y3012D01*
X15808Y2769D01*
X15977Y3012D02*
X16148Y2769D01*
X16488Y3741D02*
X17169D01*
X16829Y4229D02*
Y3012D01*
X17000Y2769D01*
X17169Y3012D01*
X17511Y2769D02*
Y3741D01*
Y3984D02*
Y4229D01*
X18362Y2769D02*
X18020D01*
X17851Y3012D01*
Y3498D01*
X18020Y3741D01*
X18362D01*
X18531Y3498D01*
Y3012D01*
X18362Y2769D01*
X18872Y2769D02*
Y3741D01*
X18872Y3255D02*
X19213Y3741D01*
X19383D01*
X19554Y3498D01*
Y2769D01*
X20234Y2769D02*
X20063D01*
X19894Y3012D01*
Y3498D01*
X20063Y3741D01*
X20234D01*
X20405Y3498D01*
Y3012D01*
X20234Y2769D01*
X20405Y3012D02*
X20574Y2769D01*
X20915Y4229D02*
Y3012D01*
X21086Y2769D01*
X22448Y2769D02*
Y4229D01*
X22958D01*
X23129Y3984D01*
Y3741D01*
X22958Y3498D01*
X22448D01*
X23469D02*
Y3741D01*
X23469Y3255D02*
X23809Y3741D01*
X23980D01*
X24151Y3498D01*
X25002Y2769D02*
X24661D01*
X24491Y3012D01*
Y3498D01*
X24661Y3741D01*
X25002D01*
X25172Y3498D01*
Y3012D01*
X25002Y2769D01*
X26194Y3255D02*
X25852Y2769D01*
X25683D01*
X25512Y3012D01*
Y3498D01*
X25683Y3741D01*
X25852D01*
X26194Y3255D01*
X26194Y4229D02*
Y2769D01*
X26534Y3741D02*
Y3012D01*
X26704Y2769D01*
X26875D01*
X27215Y3255D01*
X27215Y3741D02*
Y2769D01*
X28237Y3741D02*
X27726D01*
X27555Y3498D01*
Y3012D01*
X27726Y2769D01*
X28237D01*
X28577Y3741D02*
X29258D01*
X28918Y4229D02*
Y3012D01*
X29088Y2769D01*
X29258Y3012D01*
X29598Y2769D02*
Y3012D01*
X144Y580D02*
Y2038D01*
X825D01*
X144Y1309D02*
X484D01*
X1676Y580D02*
X1336D01*
X1165Y823D01*
Y1309D01*
X1336Y1552D01*
X1676D01*
X1847Y1309D01*
Y823D01*
X1676Y580D01*
X2187Y580D02*
Y1552D01*
X2187Y1066D02*
X2527Y1552D01*
X2697D01*
X2868Y1309D01*
X4230Y2038D02*
X4570D01*
X4400D02*
Y580D01*
X4230D02*
X4570D01*
X4911D02*
Y1552D01*
X4911Y1066D02*
X5251Y1552D01*
X5422D01*
X5591Y1309D01*
Y580D01*
X5933Y580D02*
X6443D01*
X6613Y823D01*
X6443Y1066D01*
X6102D01*
X5933Y1309D01*
X6102Y1552D01*
X6613D01*
X6954D02*
X7636D01*
X7294Y2038D02*
Y823D01*
X7465Y580D01*
X7636Y823D01*
X7976Y580D02*
Y1552D01*
X7976Y1066D02*
X8316Y1552D01*
X8486D01*
X8656Y1309D01*
X8997Y1552D02*
Y823D01*
X9168Y580D01*
X9337D01*
X9679Y1066D01*
X9679D02*
Y580D01*
X10700Y1552D02*
X10188D01*
X10019Y1309D01*
Y823D01*
X10188Y580D01*
X10700D01*
X11040Y1552D02*
X11722D01*
X11380Y2038D02*
Y823D01*
X11551Y580D01*
X11722Y823D01*
X12062Y580D02*
Y1552D01*
Y1795D02*
Y2038D01*
X12913Y580D02*
X12573D01*
X12402Y823D01*
Y1309D01*
X12573Y1552D01*
X12913D01*
X13083Y1309D01*
Y823D01*
X12913Y580D01*
X13425Y580D02*
Y1552D01*
X13425Y1066D02*
X13765Y1552D01*
X13934D01*
X14105Y1309D01*
Y580D01*
X14786Y580D02*
X14616D01*
X14445Y823D01*
Y1309D01*
X14616Y1552D01*
X14786D01*
X14956Y1309D01*
Y823D01*
X14786Y580D01*
X14956Y823D02*
X15126Y580D01*
X15468Y2038D02*
Y823D01*
X15637Y580D01*
X17000Y2038D02*
Y823D01*
X17169Y580D01*
X17511D01*
X17680Y823D01*
Y2038D01*
X18020Y580D02*
X18531D01*
X18702Y823D01*
X18531Y1066D01*
X18191D01*
X18020Y1309D01*
X18191Y1552D01*
X18702D01*
X19043Y1066D02*
X19554D01*
X19723Y1309D01*
X19554Y1552D01*
X19213D01*
X19043Y1309D01*
Y823D01*
X19213Y580D01*
X19554D01*
X21086Y580D02*
Y2038D01*
X21766D01*
Y580D01*
X21086D01*
X22108D02*
Y1552D01*
X22108Y1066D02*
X22448Y1552D01*
X22618D01*
X22788Y1309D01*
Y580D01*
X23129Y2038D02*
Y823D01*
X23299Y580D01*
X23640D02*
X23980Y580D01*
X24320Y1552D02*
X23809Y93D01*
X23640D01*
X24661D02*
Y823D01*
D02*
M02*
